<?xml version="1.0" encoding="UTF-8" standalone="no"?>
<svg
   xmlns:dc="http://purl.org/dc/elements/1.1/"
   xmlns:cc="http://creativecommons.org/ns#"
   xmlns:rdf="http://www.w3.org/1999/02/22-rdf-syntax-ns#"
   xmlns:svg="http://www.w3.org/2000/svg"
   xmlns="http://www.w3.org/2000/svg"
   viewBox="0 0 800 800"
   height="800"
   width="800"
   xml:space="preserve"
   id="svg2"
   version="1.1"><metadata
     id="metadata8"><rdf:RDF><cc:Work
         rdf:about=""><dc:format>image/svg+xml</dc:format><dc:type
           rdf:resource="http://purl.org/dc/dcmitype/StillImage" /></cc:Work></rdf:RDF></metadata><defs
     id="defs6"><clipPath
       id="clipPath18"
       clipPathUnits="userSpaceOnUse"><path
         id="path16"
         d="M 0,600 H 600 V 0 H 0 Z" /></clipPath></defs><g
     transform="matrix(1.3333333,0,0,-1.3333333,0,800)"
     id="g10"><g
       id="g12"><g
         clip-path="url(#clipPath18)"
         id="g14"><g
           transform="translate(80.75,247.167)"
           id="g20"><path
             id="path22"
             style="fill:#337ce5;fill-opacity:1;fill-rule:nonzero;stroke:none"
             d="m 0,0 c 18.007,-12.109 137.443,-87.627 302.227,-78.168 0.119,0.007 0.233,0.058 0.317,0.143 L 433.435,53.488 c 2.178,2.189 0.525,5.914 -2.559,5.743 C 395.76,57.284 262.745,56.28 130.909,138.707 L -0.371,3.669 C -1.418,2.592 -1.247,0.838 0,0" /></g><g
           transform="translate(112.0293,310.3057)"
           id="g24"><path
             id="path26"
             style="fill:#339eff;fill-opacity:1;fill-rule:nonzero;stroke:none"
             d="M 0,0 C 14.42,-13.396 115.961,-102.245 271.073,-100.599 L 402.709,31.664 c 2.096,2.106 0.643,5.704 -2.328,5.748 -32.735,0.476 -158.807,8.78 -268.943,104.061 L -0.108,3.428 C -1.035,2.455 -0.985,0.915 0,0" /></g><g
           transform="translate(166.0806,411.1895)"
           id="g28"><path
             id="path30"
             style="fill:#6dd3f7;fill-opacity:1;fill-rule:nonzero;stroke:none"
             d="m 0,0 c 9.406,-20.283 67.249,-131.604 215.535,-160.604 1.317,-0.257 2.684,0.165 3.632,1.116 L 350.56,-27.469 c 1.89,1.899 0.931,5.133 -1.693,5.675 -29.056,6.009 -153.041,38.13 -213.036,157.903 -1.04,2.077 -3.798,2.537 -5.427,0.882 L 0.978,5.606 C -0.486,4.12 -0.878,1.893 0,0" /></g><g
           transform="translate(180.5,385.5332)"
           id="g32"><path
             id="path34"
             style="fill:#31c4f7;fill-opacity:1;fill-rule:nonzero;stroke:none"
             d="m 0,0 c 25.867,-40.686 86.45,-112.492 201.274,-134.947 1.317,-0.258 2.685,0.164 3.632,1.115 l 97.392,97.856 C 249.791,-30.59 151.352,-10.08 63.126,66.246 Z" /></g><g
           transform="translate(103.0947,97.1738)"
           id="g36"><path
             id="path38"
             style="fill:#000000;fill-opacity:1;fill-rule:nonzero;stroke:none"
             d="m 0,0 h 13.83 c 3.624,0 6.517,0.635 8.679,1.907 2.161,1.272 3.243,3.687 3.243,7.249 0,3.56 -1.082,5.945 -3.243,7.153 -2.162,1.208 -5.055,1.812 -8.679,1.812 H 0 Z m 14.307,30.043 c 7.947,0 13.987,-1.845 18.121,-5.531 4.133,-3.689 6.199,-8.808 6.199,-15.356 0,-4.642 -1.065,-8.6 -3.194,-11.875 -2.132,-3.275 -5.263,-5.708 -9.395,-7.296 L 39.2,-33.573 c 0.191,-0.381 0.286,-0.732 0.286,-1.049 0,-0.572 -0.207,-1.066 -0.62,-1.478 -0.414,-0.415 -0.906,-0.62 -1.478,-0.62 h -8.107 c -1.273,0 -2.21,0.301 -2.814,0.906 -0.605,0.603 -1.034,1.16 -1.287,1.668 L 12.685,-11.922 H 0 v -22.224 c 0,-0.7 -0.254,-1.303 -0.763,-1.811 -0.509,-0.51 -1.113,-0.763 -1.812,-0.763 H -10.3 c -0.7,0 -1.304,0.253 -1.812,0.763 -0.511,0.508 -0.763,1.111 -0.763,1.811 v 61.614 c 0,0.699 0.252,1.303 0.763,1.812 0.508,0.508 1.112,0.763 1.812,0.763 z" /></g><g
           transform="translate(209.4248,72.376)"
           id="g40"><path
             id="path42"
             style="fill:#000000;fill-opacity:1;fill-rule:nonzero;stroke:none"
             d="M 0,0 C 0.699,0 1.302,-0.255 1.812,-0.763 2.32,-1.272 2.575,-1.876 2.575,-2.575 v -6.773 c 0,-0.7 -0.255,-1.303 -0.763,-1.811 -0.51,-0.51 -1.113,-0.763 -1.812,-0.763 h -41.87 c -0.7,0 -1.304,0.253 -1.812,0.763 -0.51,0.508 -0.763,1.111 -0.763,1.811 v 61.614 c 0,0.699 0.253,1.302 0.763,1.812 0.508,0.508 1.112,0.763 1.812,0.763 h 41.107 c 0.699,0 1.303,-0.255 1.812,-0.763 0.509,-0.51 0.763,-1.113 0.763,-1.812 v -6.772 c 0,-0.7 -0.254,-1.304 -0.763,-1.812 -0.509,-0.51 -1.113,-0.763 -1.812,-0.763 H -31.569 V 27.754 h 28.708 c 0.699,0 1.302,-0.255 1.812,-0.763 0.508,-0.51 0.763,-1.113 0.763,-1.812 v -6.772 c 0,-0.7 -0.255,-1.303 -0.763,-1.811 -0.51,-0.51 -1.113,-0.764 -1.812,-0.764 H -31.569 V 0 Z" /></g><g
           transform="translate(258.3965,128.1709)"
           id="g44"><path
             id="path46"
             style="fill:#000000;fill-opacity:1;fill-rule:nonzero;stroke:none"
             d="m 0,0 c 4.259,0 8.012,-0.572 11.254,-1.717 3.243,-1.144 5.945,-2.575 8.107,-4.292 2.161,-1.717 3.799,-3.609 4.912,-5.675 1.111,-2.067 1.731,-4.022 1.86,-5.866 0.063,-0.762 -0.176,-1.383 -0.715,-1.859 -0.541,-0.477 -1.161,-0.715 -1.86,-0.715 h -6.676 c -1.082,0 -1.893,0.205 -2.432,0.619 -0.541,0.413 -1.035,0.969 -1.479,1.67 -0.953,1.588 -2.401,2.971 -4.339,4.148 -1.941,1.176 -4.817,1.765 -8.632,1.765 -1.654,0 -3.228,-0.177 -4.721,-0.525 -1.495,-0.35 -2.799,-0.858 -3.91,-1.526 -1.114,-0.668 -1.989,-1.478 -2.623,-2.432 -0.637,-0.953 -0.954,-2.035 -0.954,-3.242 0,-1.464 0.301,-2.656 0.906,-3.578 0.603,-0.921 1.621,-1.716 3.052,-2.383 1.431,-0.668 3.322,-1.288 5.675,-1.861 2.351,-0.572 5.277,-1.239 8.774,-2.003 3.815,-0.827 7.106,-1.797 9.872,-2.908 2.765,-1.113 5.022,-2.449 6.771,-4.006 1.749,-1.559 3.054,-3.354 3.911,-5.388 0.858,-2.037 1.287,-4.357 1.287,-6.963 0,-2.862 -0.636,-5.517 -1.907,-7.964 -1.272,-2.448 -3.085,-4.547 -5.436,-6.295 -2.354,-1.75 -5.246,-3.133 -8.679,-4.149 -3.434,-1.016 -7.282,-1.526 -11.541,-1.526 -3.562,0 -6.962,0.43 -10.206,1.287 -3.242,0.86 -6.12,2.099 -8.631,3.721 -2.513,1.621 -4.53,3.576 -6.056,5.865 -1.526,2.289 -2.385,4.831 -2.576,7.63 -0.063,0.763 0.175,1.383 0.716,1.859 0.54,0.478 1.159,0.716 1.86,0.716 h 6.676 c 1.081,0 1.907,-0.19 2.48,-0.572 0.572,-0.382 1.049,-0.954 1.43,-1.717 0.444,-0.827 0.985,-1.654 1.622,-2.479 0.635,-0.827 1.493,-1.56 2.575,-2.195 1.081,-0.635 2.432,-1.161 4.053,-1.573 1.622,-0.414 3.64,-0.62 6.057,-0.62 1.908,0 3.751,0.144 5.531,0.43 1.78,0.286 3.339,0.762 4.674,1.43 1.336,0.667 2.416,1.493 3.243,2.48 0.825,0.985 1.24,2.208 1.24,3.672 0,1.397 -0.446,2.542 -1.335,3.433 -0.892,0.89 -2.242,1.653 -4.054,2.289 -1.812,0.635 -4.053,1.241 -6.724,1.812 -2.671,0.572 -5.755,1.303 -9.252,2.194 -3.18,0.763 -5.96,1.669 -8.345,2.718 -2.384,1.05 -4.356,2.337 -5.913,3.863 -1.559,1.526 -2.718,3.322 -3.481,5.389 -0.764,2.065 -1.145,4.53 -1.145,7.392 0,2.861 0.635,5.499 1.908,7.916 1.271,2.416 3.019,4.482 5.245,6.199 2.225,1.717 4.88,3.067 7.964,4.053 C -6.883,-0.493 -3.562,0 0,0" /></g><g
           transform="translate(357.3018,127.2168)"
           id="g48"><path
             id="path50"
             style="fill:#000000;fill-opacity:1;fill-rule:nonzero;stroke:none"
             d="m 0,0 c 0.698,0 1.302,-0.255 1.812,-0.763 0.507,-0.509 0.762,-1.113 0.762,-1.812 v -39.104 c 0,-3.943 -0.572,-7.504 -1.717,-10.682 -1.144,-3.18 -2.861,-5.913 -5.15,-8.202 -2.289,-2.29 -5.149,-4.054 -8.583,-5.294 -3.434,-1.24 -7.409,-1.86 -11.923,-1.86 -4.578,0 -8.568,0.62 -11.97,1.86 -3.401,1.24 -6.246,3.004 -8.535,5.294 -2.289,2.289 -3.991,5.022 -5.102,8.202 -1.114,3.178 -1.669,6.739 -1.669,10.682 v 39.104 c 0,0.699 0.253,1.303 0.762,1.812 0.508,0.508 1.112,0.763 1.812,0.763 h 7.726 c 0.698,0 1.302,-0.255 1.811,-0.763 0.509,-0.509 0.764,-1.113 0.764,-1.812 v -38.627 c 0,-2.608 0.348,-4.833 1.05,-6.677 0.698,-1.845 1.682,-3.354 2.956,-4.53 1.27,-1.177 2.797,-2.035 4.578,-2.575 1.779,-0.54 3.72,-0.811 5.817,-0.811 2.099,0 4.054,0.271 5.866,0.811 1.812,0.54 3.353,1.398 4.625,2.575 1.272,1.176 2.274,2.685 3.005,4.53 0.731,1.844 1.097,4.069 1.097,6.677 v 38.627 c 0,0.699 0.254,1.303 0.764,1.812 C -8.935,-0.255 -8.331,0 -7.631,0 Z" /></g><g
           transform="translate(413.1338,93.168)"
           id="g52"><path
             id="path54"
             style="fill:#000000;fill-opacity:1;fill-rule:nonzero;stroke:none"
             d="m 0,0 18.121,31.474 c 0.254,0.317 0.683,0.826 1.287,1.526 0.605,0.698 1.542,1.049 2.815,1.049 h 6.485 c 0.699,0 1.303,-0.255 1.813,-0.763 0.507,-0.51 0.762,-1.113 0.762,-1.812 V -30.14 c 0,-0.7 -0.255,-1.303 -0.762,-1.811 -0.51,-0.51 -1.114,-0.763 -1.813,-0.763 h -7.726 c -0.7,0 -1.303,0.253 -1.811,0.763 -0.51,0.508 -0.764,1.111 -0.764,1.811 V 7.153 L 6.008,-14.307 C 5.689,-14.816 5.245,-15.341 4.673,-15.88 4.102,-16.421 3.37,-16.691 2.479,-16.691 h -4.958 c -0.892,0 -1.623,0.27 -2.195,0.811 -0.572,0.539 -1.017,1.064 -1.335,1.573 L -18.408,7.153 V -30.14 c 0,-0.7 -0.254,-1.303 -0.763,-1.811 -0.509,-0.51 -1.113,-0.763 -1.811,-0.763 h -7.727 c -0.7,0 -1.304,0.253 -1.812,0.763 -0.509,0.508 -0.763,1.111 -0.763,1.811 v 61.614 c 0,0.699 0.254,1.302 0.763,1.812 0.508,0.508 1.112,0.763 1.812,0.763 h 6.486 c 1.272,0 2.208,-0.351 2.814,-1.049 0.603,-0.7 1.032,-1.209 1.287,-1.526 z" /></g><g
           transform="translate(509.6689,72.376)"
           id="g56"><path
             id="path58"
             style="fill:#000000;fill-opacity:1;fill-rule:nonzero;stroke:none"
             d="m 0,0 c 0.699,0 1.302,-0.255 1.812,-0.763 0.507,-0.509 0.763,-1.113 0.763,-1.812 v -6.773 c 0,-0.7 -0.256,-1.303 -0.763,-1.811 -0.51,-0.51 -1.113,-0.763 -1.812,-0.763 h -41.871 c -0.7,0 -1.303,0.253 -1.812,0.763 -0.509,0.508 -0.762,1.111 -0.762,1.811 v 61.614 c 0,0.699 0.253,1.302 0.762,1.812 0.509,0.508 1.112,0.763 1.812,0.763 h 41.108 c 0.699,0 1.302,-0.255 1.812,-0.763 0.508,-0.51 0.763,-1.113 0.763,-1.812 v -6.772 c 0,-0.7 -0.255,-1.304 -0.763,-1.812 -0.51,-0.51 -1.113,-0.763 -1.812,-0.763 H -31.57 V 27.754 h 28.709 c 0.698,0 1.302,-0.255 1.811,-0.763 0.509,-0.51 0.763,-1.113 0.763,-1.812 v -6.772 c 0,-0.7 -0.254,-1.303 -0.763,-1.811 -0.509,-0.51 -1.113,-0.764 -1.811,-0.764 H -31.57 L -31.57,0 Z" /></g></g></g></g></svg>